<?xml version="1.0" encoding="UTF-8" standalone="no"?><!DOCTYPE svg PUBLIC "-//W3C//DTD SVG 1.1//EN" "http://www.w3.org/Graphics/SVG/1.1/DTD/svg11.dtd"><svg width="100%" height="100%" viewBox="0 0 1024 1024" version="1.1" xmlns="http://www.w3.org/2000/svg" xmlns:xlink="http://www.w3.org/1999/xlink" xml:space="preserve" xmlns:serif="http://www.serif.com/" style="fill-rule:evenodd;clip-rule:evenodd;stroke-linejoin:round;stroke-miterlimit:2;"><g id="dribbble"><path d="M8,16c-4.41,0 -8,-3.59 -8,-8c0,-4.41 3.59,-8 8,-8c4.41,0 8,3.59 8,8c0,4.41 -3.59,8 -8,8Zm6.747,-6.905c-0.234,-0.074 -2.115,-0.635 -4.257,-0.292c0.894,2.456 1.258,4.456 1.328,4.872c1.533,-1.037 2.624,-2.68 2.93,-4.58l-0.001,0Zm-4.077,5.205c-0.102,-0.6 -0.5,-2.688 -1.46,-5.18l-0.044,0.014c-3.854,1.343 -5.236,4.016 -5.36,4.266c1.158,0.905 2.614,1.444 4.194,1.444c0.947,0 1.85,-0.194 2.67,-0.543l0,-0.001Zm-7.747,-1.72c0.155,-0.266 2.03,-3.37 5.555,-4.51c0.09,-0.03 0.18,-0.056 0.27,-0.08c-0.173,-0.39 -0.36,-0.778 -0.555,-1.16c-3.413,1.02 -6.723,0.977 -7.023,0.97l-0.003,0.208c0,1.755 0.665,3.358 1.756,4.57l0,0.002Zm-1.613,-5.97c0.307,0.005 3.122,0.017 6.318,-0.832c-1.132,-2.012 -2.353,-3.705 -2.533,-3.952c-1.912,0.902 -3.34,2.664 -3.784,4.785l-0.001,-0.001Zm5.09,-5.242c0.188,0.253 1.43,1.943 2.548,4c2.43,-0.91 3.46,-2.293 3.582,-2.468c-1.207,-1.073 -2.794,-1.724 -4.53,-1.724c-0.55,0 -1.087,0.066 -1.6,0.19l0,0.002Zm6.89,2.322c-0.145,0.194 -1.29,1.662 -3.816,2.694c0.16,0.325 0.31,0.656 0.453,0.99c0.05,0.117 0.1,0.235 0.147,0.352c2.274,-0.286 4.533,0.172 4.758,0.22c-0.015,-1.613 -0.59,-3.094 -1.543,-4.257l0.001,0.001Z"/></g><g id="facebook"><path d="M15.117,0l-14.234,0c-0.488,0 -0.883,0.395 -0.883,0.883l-0,14.234c-0,0.488 0.395,0.883 0.883,0.883l7.663,0l-0,-6.196l-2.086,0l-0,-2.414l2.086,-0l-0,-1.783c-0,-2.066 1.262,-3.19 3.106,-3.19c0.883,0 1.642,0.064 1.863,0.094l-0,2.16l-1.28,0c-1,0 -1.195,0.48 -1.195,1.18l-0,1.54l2.39,0l-0.31,2.42l-2.08,0l-0,6.189l4.077,0c0.488,0 0.883,-0.395 0.883,-0.883l0,-14.234c0,-0.488 -0.395,-0.883 -0.883,-0.883" style="fill-rule:nonzero;"/></g><g id="flickr"><path d="M0,8c0,2.05 1.662,3.71 3.71,3.71c2.05,0 3.713,-1.66 3.713,-3.71c0,-2.05 -1.663,-3.71 -3.713,-3.71c-2.047,0 -3.71,1.66 -3.71,3.71Zm8.577,0c0,2.05 1.662,3.71 3.712,3.71c2.041,0 3.711,-1.66 3.711,-3.71c0,-2.05 -1.662,-3.71 -3.71,-3.71c-2.05,0 -3.713,1.66 -3.713,3.71Z"/></g><g id="github"><path d="M8,0c-4.42,0 -8,3.582 -8,8c0,3.535 2.292,6.533 5.47,7.59c0.4,0.075 0.547,-0.172 0.547,-0.385c0,-0.19 -0.007,-0.693 -0.01,-1.36c-2.226,0.483 -2.695,-1.073 -2.695,-1.073c-0.364,-0.924 -0.89,-1.17 -0.89,-1.17c-0.725,-0.496 0.056,-0.486 0.056,-0.486c0.803,0.056 1.225,0.824 1.225,0.824c0.714,1.223 1.873,0.87 2.33,0.665c0.072,-0.517 0.278,-0.87 0.507,-1.07c-1.777,-0.2 -3.644,-0.888 -3.644,-3.953c0,-0.873 0.31,-1.587 0.823,-2.147c-0.09,-0.202 -0.36,-1.015 0.07,-2.117c0,0 0.67,-0.215 2.2,0.82c0.64,-0.178 1.32,-0.266 2,-0.27c0.68,0.004 1.36,0.092 2,0.27c1.52,-1.035 2.19,-0.82 2.19,-0.82c0.43,1.102 0.16,1.915 0.08,2.117c0.51,0.56 0.82,1.274 0.82,2.147c0,3.073 -1.87,3.75 -3.65,3.947c0.28,0.24 0.54,0.73 0.54,1.48c0,1.07 -0.01,1.93 -0.01,2.19c0,0.21 0.14,0.46 0.55,0.38c3.201,-1.049 5.491,-4.049 5.491,-7.579c0,-4.418 -3.582,-8 -8,-8"/></g><g id="googleplus"><path d="M5.09,7.273l0,1.745l2.89,0c-0.116,0.75 -0.873,2.197 -2.887,2.197c-1.737,0 -3.155,-1.44 -3.155,-3.215c0,-1.775 1.415,-3.215 3.152,-3.215c0.99,0 1.652,0.422 2.03,0.786l1.382,-1.33c-0.887,-0.83 -2.037,-1.33 -3.41,-1.33c-2.817,-0.001 -5.092,2.279 -5.092,5.089c0,2.81 2.276,5.09 5.09,5.09c2.94,0 4.888,-2.065 4.888,-4.974c0,-0.334 -0.036,-0.59 -0.08,-0.843l-4.808,0Zm10.91,0l-1.455,0l0,-1.455l-1.455,0l0,1.455l-1.454,0l0,1.454l1.455,0l0,1.455l1.46,0l0,-1.455l1.449,0"/></g><g id="instagram"><path d="M8,0c-2.173,0 -2.445,0.01 -3.298,0.048c-0.852,0.04 -1.432,0.174 -1.942,0.372c-0.526,0.204 -0.973,0.478 -1.417,0.923c-0.445,0.444 -0.72,0.89 -0.923,1.417c-0.198,0.51 -0.333,1.09 -0.372,1.942c-0.04,0.853 -0.048,1.125 -0.048,3.298c0,2.173 0.01,2.445 0.048,3.298c0.04,0.852 0.174,1.433 0.372,1.942c0.204,0.526 0.478,0.973 0.923,1.417c0.444,0.445 0.89,0.72 1.417,0.923c0.51,0.198 1.09,0.333 1.942,0.372c0.853,0.04 1.125,0.048 3.298,0.048c2.173,0 2.445,-0.01 3.298,-0.048c0.852,-0.04 1.433,-0.174 1.942,-0.372c0.526,-0.204 0.973,-0.478 1.417,-0.923c0.445,-0.444 0.72,-0.89 0.923,-1.417c0.198,-0.51 0.333,-1.09 0.372,-1.942c0.04,-0.853 0.048,-1.125 0.048,-3.298c0,-2.173 -0.01,-2.445 -0.048,-3.298c-0.04,-0.852 -0.174,-1.433 -0.372,-1.942c-0.204,-0.526 -0.478,-0.973 -0.923,-1.417c-0.444,-0.445 -0.89,-0.72 -1.417,-0.923c-0.51,-0.198 -1.09,-0.333 -1.942,-0.372c-0.853,-0.04 -1.125,-0.048 -3.298,-0.048Zm0,1.44c2.136,0 2.39,0.01 3.233,0.048c0.78,0.036 1.203,0.166 1.485,0.276c0.374,0.145 0.64,0.318 0.92,0.598c0.28,0.28 0.453,0.546 0.598,0.92c0.11,0.282 0.24,0.705 0.276,1.485c0.038,0.844 0.047,1.097 0.047,3.233c0,2.136 -0.01,2.39 -0.05,3.233c-0.04,0.78 -0.17,1.203 -0.28,1.485c-0.15,0.374 -0.32,0.64 -0.6,0.92c-0.28,0.28 -0.55,0.453 -0.92,0.598c-0.28,0.11 -0.71,0.24 -1.49,0.276c-0.85,0.038 -1.1,0.047 -3.24,0.047c-2.14,0 -2.39,-0.01 -3.24,-0.05c-0.78,-0.04 -1.21,-0.17 -1.49,-0.28c-0.38,-0.15 -0.64,-0.32 -0.92,-0.6c-0.28,-0.28 -0.46,-0.55 -0.6,-0.92c-0.11,-0.28 -0.24,-0.71 -0.28,-1.49c-0.03,-0.84 -0.04,-1.1 -0.04,-3.23c0,-2.13 0.01,-2.39 0.04,-3.24c0.04,-0.78 0.17,-1.21 0.28,-1.49c0.14,-0.38 0.32,-0.64 0.6,-0.92c0.28,-0.28 0.54,-0.46 0.92,-0.6c0.28,-0.11 0.7,-0.24 1.48,-0.28c0.85,-0.03 1.1,-0.04 3.24,-0.04l0.031,0.021Zm-0,2.452c-2.27,-0 -4.108,1.84 -4.108,4.108c-0,2.27 1.84,4.108 4.108,4.108c2.27,0 4.108,-1.84 4.108,-4.108c0,-2.27 -1.84,-4.108 -4.108,-4.108Zm0,6.775c-1.473,-0 -2.667,-1.194 -2.667,-2.667c0,-1.473 1.194,-2.667 2.667,-2.667c1.473,-0 2.667,1.194 2.667,2.667c0,1.473 -1.194,2.667 -2.667,2.667Zm5.23,-6.937c0,0.53 -0.43,0.96 -0.96,0.96c-0.53,-0 -0.96,-0.43 -0.96,-0.96c0,-0.53 0.43,-0.96 0.96,-0.96c0.53,-0 0.96,0.43 0.96,0.96Z"/></g><g id="linkedin"><path d="M13.632,13.635l-2.37,0l0,-3.713c0,-0.886 -0.018,-2.025 -1.234,-2.025c-1.235,0 -1.424,0.964 -1.424,1.96l0,3.778l-2.37,0l0,-7.635l2.276,0l-0,1.04l0.03,0c0.318,-0.6 1.092,-1.233 2.247,-1.233c2.4,0 2.845,1.58 2.845,3.637l-0,4.191Zm-10.074,-8.68c-0.762,-0 -1.376,-0.617 -1.376,-1.377c-0,-0.758 0.614,-1.375 1.376,-1.375c0.76,-0 1.376,0.617 1.376,1.375c-0,0.76 -0.617,1.377 -1.376,1.377Zm1.188,8.68l-2.376,-0l-0,-7.635l2.376,-0l-0,7.635Zm10.07,-13.635l-13.636,-0c-0.652,-0 -1.18,0.516 -1.18,1.153l-0,13.694c-0,0.637 0.528,1.153 1.18,1.153l13.635,-0c0.652,-0 1.185,-0.516 1.185,-1.153l0,-13.694c0,-0.637 -0.533,-1.153 -1.185,-1.153l0.001,-0Z" style="fill-rule:nonzero;"/></g><g id="pinterest"><path d="M8,0c-4.418,0 -8,3.582 -8,8c0,3.39 2.108,6.285 5.084,7.45c-0.07,-0.633 -0.133,-1.604 0.028,-2.295c0.146,-0.625 0.938,-3.977 0.938,-3.977c-0,0 -0.24,-0.48 -0.24,-1.188c-0,-1.11 0.646,-1.943 1.448,-1.943c0.683,0 1.012,0.513 1.012,1.127c0,0.687 -0.436,1.713 -0.662,2.664c-0.19,0.797 0.4,1.445 1.185,1.445c1.42,0 2.514,-1.498 2.514,-3.662c0,-1.91 -1.376,-3.25 -3.342,-3.25c-2.276,0 -3.61,1.71 -3.61,3.47c0,0.69 0.263,1.43 0.593,1.83c0.066,0.08 0.075,0.15 0.057,0.23c-0.06,0.25 -0.196,0.8 -0.223,0.91c-0.035,0.15 -0.115,0.18 -0.268,0.11c-0.998,-0.461 -1.624,-1.921 -1.624,-3.101c0,-2.52 1.834,-4.84 5.287,-4.84c2.774,0 4.932,1.98 4.932,4.62c0,2.76 -1.74,4.98 -4.16,4.98c-0.81,0 -1.57,-0.42 -1.84,-0.92l-0.5,1.9c-0.18,0.698 -0.67,1.57 -1,2.1c0.75,0.23 1.54,0.357 2.37,0.357c4.41,0 8,-3.58 8,-8c0,-4.42 -3.59,-8 -8,-8l0.021,-0.017Z" style="fill-rule:nonzero;"/></g><g id="rss"><path d="M12.8,16c0,-7.022 -5.778,-12.8 -12.8,-12.8l0,-3.2c8.777,0 16,7.223 16,16l-3.2,0Zm-10.606,-4.39c1.21,0 2.195,0.985 2.195,2.196c-0,1.21 -0.99,2.194 -2.2,2.194c-1.209,0 -2.189,-0.983 -2.189,-2.194c-0,-1.21 0.983,-2.195 2.194,-2.195l-0,-0.001Zm8.412,4.39l-3.11,0c-0,-4.113 -3.383,-7.497 -7.496,-7.497l-0,-3.11c5.818,0 10.606,4.79 10.606,10.607Z"/></g><g id="stackoverflow"><path d="M12.658,14.577l0,-4.27l1.423,0l0,5.693l-12.851,0l0,-5.693l1.42,0l0,4.27l10.008,0Zm-8.583,-1.423l7.16,0l0,-1.424l-7.16,0l0,1.424Zm0.173,-3.235l6.987,1.46l0.3,-1.38l-6.985,-1.459l-0.302,1.38l-0,-0.001Zm0.906,-3.37l6.47,3.02l0.602,-1.3l-6.47,-3.02l-0.602,1.29l0,0.01Zm1.81,-3.19l5.478,4.57l0.906,-1.08l-5.478,-4.569l-0.9,1.078l-0.006,0.001Zm3.538,-3.359l-1.164,0.863l4.27,5.735l1.164,-0.862l-4.272,-5.736l0.002,0Z"/></g><g id="twitter"><path d="M16,3.038c-0.59,0.26 -1.22,0.437 -1.885,0.517c0.677,-0.407 1.198,-1.05 1.443,-1.816c-0.634,0.37 -1.337,0.64 -2.085,0.79c-0.598,-0.64 -1.45,-1.04 -2.396,-1.04c-1.812,0 -3.282,1.47 -3.282,3.28c0,0.26 0.03,0.51 0.085,0.75c-2.728,-0.13 -5.147,-1.44 -6.766,-3.42c-0.284,0.481 -0.444,1.041 -0.444,1.651c0,1.14 0.58,2.143 1.46,2.732c-0.538,-0.017 -1.045,-0.165 -1.487,-0.41l0,0.04c0,1.59 1.13,2.918 2.633,3.22c-0.276,0.074 -0.566,0.114 -0.865,0.114c-0.21,0 -0.41,-0.02 -0.61,-0.058c0.42,1.304 1.63,2.253 3.07,2.28c-1.12,0.88 -2.54,1.404 -4.07,1.404c-0.26,-0 -0.52,-0.015 -0.78,-0.045c1.46,0.93 3.18,1.474 5.04,1.474c6.04,-0 9.34,-5 9.34,-9.33c0,-0.14 0,-0.28 -0.01,-0.42c0.64,-0.46 1.2,-1.04 1.64,-1.7l-0.031,-0.013Z" style="fill-rule:nonzero;"/></g><g id="youtube"><path d="M0,7.345c0,-1.294 0.16,-2.59 0.16,-2.59c0,0 0.156,-1.1 0.636,-1.587c0.608,-0.637 1.408,-0.617 1.764,-0.684c1.28,-0.124 5.44,-0.16 5.44,-0.16c0,0 3.362,0.004 5.6,0.166c0.314,0.038 0.996,0.04 1.604,0.678c0.48,0.486 0.636,1.588 0.636,1.588c0,0 0.16,1.294 0.16,2.59l0,1.258c0,1.296 -0.16,2.59 -0.16,2.59c0,0 -0.156,1.102 -0.636,1.588c-0.608,0.638 -1.29,0.64 -1.604,0.678c-2.238,0.162 -5.6,0.166 -5.6,0.166c0,0 -4.16,-0.037 -5.44,-0.16c-0.356,-0.067 -1.156,-0.047 -1.764,-0.684c-0.48,-0.487 -0.636,-1.587 -0.636,-1.587c0,0 -0.16,-1.295 -0.16,-2.59l0,-1.26Zm6.348,2.73l0,-4.495l4.323,2.255l-4.32,2.24l-0.003,-0Z"/></g><g id="mastodon"><path d="M14.827,9.736c-0.223,1.146 -1.995,2.4 -4.03,2.643c-1.061,0.126 -2.106,0.243 -3.22,0.191c-1.822,-0.083 -3.259,-0.434 -3.259,-0.434c-0,0.177 0.011,0.346 0.032,0.504c0.237,1.798 1.783,1.905 3.248,1.956c1.478,0.05 2.794,-0.365 2.794,-0.365l0.061,1.337c-0,-0 -1.034,0.555 -2.876,0.657c-1.015,0.056 -2.276,-0.026 -3.745,-0.414c-3.186,-0.844 -3.734,-4.239 -3.817,-7.685c-0.026,-1.023 -0.01,-1.987 -0.01,-2.794c-0,-3.523 2.308,-4.556 2.308,-4.556c1.164,-0.534 3.161,-0.759 5.238,-0.776l0.051,-0c2.076,0.017 4.074,0.242 5.238,0.776c0,0 2.308,1.033 2.308,4.556c0,0 0.029,2.599 -0.321,4.404"/><path d="M12.426,5.605l-0,4.266l-1.69,0l-0,-4.14c-0,-0.873 -0.368,-1.316 -1.102,-1.316c-0.812,-0 -1.219,0.525 -1.219,1.565l-0,2.266l-1.68,-0l-0,-2.266c-0,-1.04 -0.408,-1.565 -1.22,-1.565c-0.734,-0 -1.102,0.443 -1.102,1.316l0,4.14l-1.69,0l0,-4.266c0,-0.871 0.222,-1.564 0.668,-2.077c0.46,-0.512 1.062,-0.775 1.81,-0.775c0.865,-0 1.52,0.332 1.953,0.997l0.421,0.706l0.421,-0.706c0.433,-0.665 1.087,-0.997 1.952,-0.997c0.748,-0 1.35,0.263 1.81,0.775c0.446,0.513 0.668,1.206 0.668,2.077" style="fill:#fff;"/></g><g id="bluesky"><path d="M3.468,0.948c1.835,1.377 3.808,4.17 4.532,5.668c0.725,-1.498 2.697,-4.291 4.532,-5.668c1.323,-0.993 3.468,-1.762 3.468,0.684c0,0.489 -0.28,4.105 -0.444,4.692c-0.572,2.041 -2.653,2.561 -4.504,2.246c3.236,0.551 4.059,2.375 2.281,4.199c-3.376,3.465 -4.852,-0.869 -5.231,-1.979c-0.069,-0.204 -0.102,-0.299 -0.102,-0.218c-0,-0.081 -0.033,0.014 -0.102,0.218c-0.379,1.11 -1.855,5.444 -5.231,1.979c-1.778,-1.824 -0.955,-3.648 2.281,-4.199c-1.851,0.315 -3.933,-0.205 -4.504,-2.246c-0.164,-0.587 -0.444,-4.203 -0.444,-4.692c-0,-2.446 2.145,-1.677 3.468,-0.684l0,0Z" style="fill:#1185fe;fill-rule:nonzero;"/></g></svg>